<?xml version="1.0" encoding="utf-8"?>
<!-- Generator: Adobe Illustrator 27.5.0, SVG Export Plug-In . SVG Version: 6.00 Build 0)  -->
<svg version="1.1" xmlns="http://www.w3.org/2000/svg" xmlns:xlink="http://www.w3.org/1999/xlink" x="0px" y="0px"
	 viewBox="0 0 500 500" style="enable-background:new 0 0 500 500;" xml:space="preserve">
<g id="BACKGROUND">
	<rect style="fill:#FFFFFF;" width="500" height="500"/>
</g>
<g id="OBJECTS">
	<g>
		<path style="opacity:0.3;fill:#99A5ED;" d="M97.454,83.093c-13.064,25.938-18.415,54.805-21.04,83.498
			c-2.405,26.36,2.004,46.167-11.461,71.133c-9.023,16.734-20.531,32.332-26.534,50.369c-12.625,37.957,14.393,71.352,41.523,94.959
			c72.025,62.664,170.101,94.395,265.175,85.797c24.574-2.219,49.4-7.189,70.822-19.43c21.418-12.248,39.143-32.648,43.582-56.92
			c5.523-30.195-9.654-60.176-11.568-90.813c-1.939-31.105,9.826-61.243,14.893-91.995c5.064-30.755,1.182-66.935-23.803-85.56
			c-21.035-15.675-49.756-13.834-75.461-19.057c-40.615-8.248-74.66-34.759-111.322-54.087
			c-36.662-19.328-82.881-31.223-118.398-9.865C117.776,50.8,105.9,66.333,97.454,83.093z"/>
		<g>
			<g>
				<g>
					<g>
						<path style="fill:#4849D3;" d="M139.223,162.647c0,6.145,4.981,11.126,11.128,11.126h36.716c6.146,0,11.13-4.982,11.13-11.126
							v-10.014c0-6.148-4.983-11.127-11.13-11.127h-36.716c-6.146,0-11.128,4.979-11.128,11.127V162.647z"/>
						<path style="fill:#4849D3;" d="M139.223,198.807c0,6.148,4.981,11.13,11.128,11.13h36.716c6.146,0,11.13-4.983,11.13-11.13
							v-10.015c0-6.143-4.983-11.126-11.13-11.126h-36.716c-6.146,0-11.128,4.983-11.128,11.126V198.807z"/>
						<path style="fill:#6A77E0;" d="M294.555,319.834c0,9.234-7.482,16.705-16.709,16.705H164.839
							c-9.225,0-16.698-7.471-16.698-16.705V89.752c0-9.226,7.474-16.704,16.698-16.704h113.007c9.227,0,16.709,7.478,16.709,16.704
							V319.834z"/>
						<g>
							<g>
								<path style="fill:#99A5ED;" d="M191.816,121.947c0,4.772-3.866,8.638-8.637,8.638c-4.772,0-8.639-3.866-8.639-8.638
									c0-4.771,3.867-8.637,8.639-8.637C187.95,113.31,191.816,117.177,191.816,121.947z"/>
								<path style="fill:#99A5ED;" d="M217.987,121.947c0,4.772-3.866,8.638-8.639,8.638c-4.77,0-8.637-3.866-8.637-8.638
									c0-4.771,3.867-8.637,8.637-8.637C214.121,113.31,217.987,117.177,217.987,121.947z"/>
								<path style="fill:#99A5ED;" d="M244.158,121.947c0,4.772-3.867,8.638-8.639,8.638s-8.638-3.866-8.638-8.638
									c0-4.771,3.866-8.637,8.638-8.637S244.158,117.177,244.158,121.947z"/>
								<path style="fill:#99A5ED;" d="M270.328,121.947c0,4.772-3.869,8.638-8.637,8.638c-4.773,0-8.639-3.866-8.639-8.638
									c0-4.771,3.865-8.637,8.639-8.637C266.459,113.31,270.328,117.177,270.328,121.947z"/>
							</g>
							<g>
								<path style="fill:#F05A00;" d="M191.816,157.654c0,4.771-3.866,8.638-8.637,8.638c-4.772,0-8.639-3.868-8.639-8.638
									c0-4.772,3.867-8.639,8.639-8.639C187.95,149.015,191.816,152.882,191.816,157.654z"/>
								<path style="fill:#99A5ED;" d="M217.987,157.654c0,4.771-3.866,8.638-8.639,8.638c-4.77,0-8.637-3.868-8.637-8.638
									c0-4.772,3.867-8.639,8.637-8.639C214.121,149.015,217.987,152.882,217.987,157.654z"/>
								<path style="fill:#99A5ED;" d="M244.158,157.654c0,4.771-3.867,8.638-8.639,8.638s-8.638-3.868-8.638-8.638
									c0-4.772,3.866-8.639,8.638-8.639S244.158,152.882,244.158,157.654z"/>
								<path style="fill:#99A5ED;" d="M270.328,157.654c0,4.771-3.869,8.638-8.637,8.638c-4.773,0-8.639-3.868-8.639-8.638
									c0-4.772,3.865-8.639,8.639-8.639C266.459,149.015,270.328,152.882,270.328,157.654z"/>
							</g>
							<g>
								<path style="fill:#99A5ED;" d="M191.816,300.478c0,4.77-3.866,8.637-8.637,8.637c-4.772,0-8.639-3.867-8.639-8.637
									c0-4.773,3.867-8.639,8.639-8.639C187.95,291.84,191.816,295.705,191.816,300.478z"/>
								<path style="fill:#99A5ED;" d="M217.987,300.478c0,4.77-3.866,8.637-8.639,8.637c-4.77,0-8.637-3.867-8.637-8.637
									c0-4.773,3.867-8.639,8.637-8.639C214.121,291.84,217.987,295.705,217.987,300.478z"/>
								<path style="fill:#4849D3;" d="M244.158,300.478c0,4.77-3.867,8.637-8.639,8.637s-8.638-3.867-8.638-8.637
									c0-4.773,3.866-8.639,8.638-8.639S244.158,295.705,244.158,300.478z"/>
								<path style="fill:#99A5ED;" d="M270.328,300.478c0,4.77-3.869,8.637-8.637,8.637c-4.773,0-8.639-3.867-8.639-8.637
									c0-4.773,3.865-8.639,8.639-8.639C266.459,291.84,270.328,295.705,270.328,300.478z"/>
							</g>
							<g>
								<path style="fill:#99A5ED;" d="M191.816,229.066c0,4.77-3.866,8.639-8.637,8.639c-4.772,0-8.639-3.868-8.639-8.639
									c0-4.771,3.867-8.638,8.639-8.638C187.95,220.428,191.816,224.295,191.816,229.066z"/>
								<path style="fill:#4849D3;" d="M217.987,229.066c0,4.77-3.866,8.639-8.639,8.639c-4.77,0-8.637-3.868-8.637-8.639
									c0-4.771,3.867-8.638,8.637-8.638C214.121,220.428,217.987,224.295,217.987,229.066z"/>
								<path style="fill:#4849D3;" d="M244.158,229.066c0,4.77-3.867,8.639-8.639,8.639s-8.638-3.868-8.638-8.639
									c0-4.771,3.866-8.638,8.638-8.638S244.158,224.295,244.158,229.066z"/>
								<path style="fill:#99A5ED;" d="M270.328,229.066c0,4.77-3.869,8.639-8.637,8.639c-4.773,0-8.639-3.868-8.639-8.639
									c0-4.771,3.865-8.638,8.639-8.638C266.459,220.428,270.328,224.295,270.328,229.066z"/>
							</g>
							<g>
								<path style="fill:#99A5ED;" d="M191.816,193.36c0,4.77-3.866,8.638-8.637,8.638c-4.772,0-8.639-3.868-8.639-8.638
									c0-4.771,3.867-8.64,8.639-8.64C187.95,184.721,191.816,188.589,191.816,193.36z"/>
								<path style="fill:#99A5ED;" d="M217.987,193.36c0,4.77-3.866,8.638-8.639,8.638c-4.77,0-8.637-3.868-8.637-8.638
									c0-4.771,3.867-8.64,8.637-8.64C214.121,184.721,217.987,188.589,217.987,193.36z"/>
								<path style="fill:#99A5ED;" d="M244.158,193.36c0,4.77-3.867,8.638-8.639,8.638s-8.638-3.868-8.638-8.638
									c0-4.771,3.866-8.64,8.638-8.64S244.158,188.589,244.158,193.36z"/>
								<path style="fill:#99A5ED;" d="M270.328,193.36c0,4.77-3.869,8.638-8.637,8.638c-4.773,0-8.639-3.868-8.639-8.638
									c0-4.771,3.865-8.64,8.639-8.64C266.459,184.721,270.328,188.589,270.328,193.36z"/>
							</g>
							<path style="fill:#4849D3;" d="M282.125,264.77c0,7.103-5.758,12.859-12.859,12.859h-94.748
								c-7.102,0-12.859-5.756-12.859-12.859l0,0c0-7.102,5.758-12.857,12.859-12.857h94.748
								C276.367,251.912,282.125,257.668,282.125,264.77L282.125,264.77z"/>
							<g>
								<path style="fill:#99A5ED;" d="M191.273,264.772c0,4.769-3.866,8.639-8.637,8.639c-4.771,0-8.639-3.869-8.639-8.639
									c0-4.77,3.867-8.641,8.639-8.641C187.407,256.131,191.273,260.002,191.273,264.772z"/>
								<path style="fill:#E2E2E2;" d="M217.444,264.772c0,4.769-3.867,8.639-8.639,8.639c-4.77,0-8.638-3.869-8.638-8.639
									c0-4.77,3.868-8.641,8.638-8.641C213.577,256.131,217.444,260.002,217.444,264.772z"/>
								<path style="fill:#99A5ED;" d="M243.615,264.772c0,4.769-3.868,8.639-8.64,8.639c-4.771,0-8.637-3.869-8.637-8.639
									c0-4.77,3.866-8.641,8.637-8.641C239.747,256.131,243.615,260.002,243.615,264.772z"/>
								<path style="fill:#99A5ED;" d="M269.785,264.772c0,4.769-3.869,8.639-8.639,8.639c-4.771,0-8.637-3.869-8.637-8.639
									c0-4.77,3.865-8.641,8.637-8.641C265.916,256.131,269.785,260.002,269.785,264.772z"/>
							</g>
						</g>
						<g>
							<path style="fill:#99A5ED;" d="M294.555,105.748V89.752c0-9.226-7.482-16.704-16.709-16.704H164.839
								c-9.225,0-16.698,7.478-16.698,16.704v15.995H294.555z"/>
							<g>
								<g>
									
										<rect x="276.079" y="87.074" transform="matrix(0.7067 -0.7075 0.7075 0.7067 16.3996 222.7951)" style="fill:#FFFFFF;" width="1.664" height="9.088"/>
									
										<rect x="272.367" y="90.786" transform="matrix(0.7075 -0.7067 0.7067 0.7075 16.2437 222.485)" style="fill:#FFFFFF;" width="9.088" height="1.664"/>
								</g>
								<rect x="261.197" y="88.04" style="fill:#FFFFFF;" width="7.154" height="7.156"/>
								<rect x="250.422" y="90.861" style="fill:#FFFFFF;" width="6.225" height="1.516"/>
							</g>
						</g>
						<path style="fill:#4849D3;" d="M277.846,340.502H164.839c-11.396,0-20.667-9.264-20.667-20.668V89.752
							c0-11.396,9.271-20.67,20.667-20.67h113.007c11.404,0,20.676,9.274,20.676,20.67v230.082
							C298.521,331.238,289.25,340.502,277.846,340.502z M164.839,77.017c-7.021,0-12.735,5.711-12.735,12.736v230.082
							c0,7.025,5.715,12.738,12.735,12.738h113.007c7.025,0,12.74-5.713,12.74-12.738V89.752c0-7.024-5.715-12.736-12.74-12.736
							H164.839z"/>
					</g>
					<g>
						<path style="fill:#FFFFFF;" d="M361.297,202.48c0,4.822-3.908,8.731-8.73,8.731H206.938c-4.82,0-8.729-3.909-8.729-8.731
							v-57.926c0-4.823,3.908-8.732,8.729-8.732h145.629c4.822,0,8.73,3.91,8.73,8.732V202.48z"/>
						<g>
							<path style="fill:#FFA500;" d="M266.545,173.516c0,17.274-14.002,31.275-31.273,31.275s-31.274-14.001-31.274-31.275
								c0-17.27,14.003-31.273,31.274-31.273S266.545,156.246,266.545,173.516z"/>
							<polyline style="fill:none;stroke:#FFFFFF;stroke-width:4;stroke-linecap:round;stroke-miterlimit:10;" points="
								218.872,170.726 235.271,189.873 251.672,157.163 							"/>
						</g>
						<g>
							<rect x="272.67" y="156.434" style="fill:#99A5ED;" width="78.27" height="4.201"/>
							<rect x="272.67" y="171.835" style="fill:#99A5ED;" width="78.27" height="4.2"/>
							<rect x="272.67" y="186.4" style="fill:#99A5ED;" width="78.27" height="4.199"/>
						</g>
					</g>
				</g>
				<g>
					<g>
						<polygon style="fill:#221F4F;" points="69.309,429.465 69.309,439.826 91.494,444.701 94.38,444.701 83.5,433.238 
							81.179,429.465 81.179,425.193 69.309,423.978 						"/>
						<polygon style="fill:#221F4F;" points="125.706,430.65 127.934,440.77 150.649,440.758 153.468,440.139 140.377,431.283 
							137.298,428.098 136.379,423.928 124.526,425.291 						"/>
						<path style="fill:#4849D3;" d="M110.547,265.125c0,0-2.339,23.334-0.276,29.482c2.06,6.148,4.959,138.578,4.959,138.578
							s31.778-0.961,32.254-2.035c0.903-2.039-9.777-132.219-9.777-137.191c0-4.981-2.802-31.244-2.802-31.244L110.547,265.125z"/>
						<path style="fill:#6A77E0;" d="M125.671,263.627c0,0-5.652,17.31-9.27,29.045c-4.957,16.074-24.907,140.514-24.907,140.514
							s-25.621,0.117-28.402,0c0,0,25.747-159.16,27.635-168.689L125.671,263.627z"/>
					</g>
					<g>
						<path style="fill:#F05A00;" d="M139.144,204.17c2.688,6.661,0.372,14.767-0.288,25.518
							c-0.456,7.411-0.375,32.242-3.694,35.459c-6.195,6.006-40.557,5.609-45.297,4.213c-3.124-0.928-2.035-9.971-7.25-26.646
							c-5.484-17.533-4.62-36.425-3.096-38.564c2.355-3.3,25.16-9.413,29.872-10.073
							C114.101,193.415,136.065,196.536,139.144,204.17z"/>
						<g>
							<g>
								<path style="fill:#FAC1AC;" d="M117.482,200.275l-0.459-16.88v-2.436l-12.102-0.993l-1.864,18.821
									c0,0,4.302,5.405,9.938,4.161C115.597,202.371,117.482,200.275,117.482,200.275z"/>
								<path style="fill:#FAC1AC;" d="M103.37,178.22c0.716,7.07,6.235,12.069,12.227,11.814
									c11.388-0.485,10.395-8.655,9.685-15.724c-0.716-7.066-6.387-9.891-12.37-9.533
									C106.934,165.133,102.661,171.155,103.37,178.22z"/>
								<path style="fill:#FAC1AC;" d="M100.661,182.153c1.614,2.135,4.103,2.884,5.551,1.681c1.459-1.213,1.324-3.923-0.291-6.058
									c-1.612-2.136-4.09-2.885-5.552-1.67C98.921,177.313,99.049,180.025,100.661,182.153z"/>
							</g>
							<path style="fill:#4849D3;" d="M134.258,157.242c-0.463,0.095-2.267,0.641-2.73,0.734c0.144-0.567,0.326-2.356,0.458-2.926
								c0.076-0.327-0.345-0.579-0.618-0.446c-0.493,0.242-0.902,0.498-1.403,0.617c0.41-1.67,0.657-3.371,1.014-5.055
								c0.092-0.438-0.553-0.64-0.79-0.304c-1.899,2.7-4.463,4.556-7.397,5.46c-2.275,0.073-4.459,0.02-6.81-0.405
								c-2.55-0.459-5.246-0.434-7.816-0.177c-4.054,0.411-6.816,2.17-8.803,5.68c-1.773,3.134-1.984,5.891-1.454,8.765
								c0.283,1.524,1.195,5.924,2.461,6.921c0.593,0.465,3.431,0.262,5.242,4.126c0.139,0.296,0.546-0.054,0.533-0.327
								c-0.129-2.575-0.278-3.637,0.342-6.162c1.12-4.558,8.884-5.177,13.262-5.132c2.796,0.028,4.079,1.302,4.707,2.751
								c0.543,1.26,0.947,4.162,0.947,4.162s0.261-0.354,0.613-0.599c2.477-1.721,5.73-4.252,6.805-7.033
								C133.909,165.082,134.589,157.102,134.258,157.242z"/>
							<path style="fill:#221F4F;" d="M121.381,179.966c-0.803-1.971-2.261-3.629-2.459-5.782c-0.02-0.204-0.354-0.194-0.36,0.01
								c-0.057,2.023,1.4,3.9,2.113,5.772c-0.477,0.176-1.405,0.533-1.929,0.585c-0.333,0.034-0.563,0.408-0.263,0.425
								c0.942,0.058,1.401-0.182,2.128-0.4C121.388,180.344,121.456,180.15,121.381,179.966z"/>
							<path style="fill:#221F4F;" d="M115.287,173.126c-0.009-0.02-0.017-0.041-0.024-0.061c-0.042-0.102-0.151-0.182-0.261-0.189
								c-0.926-0.054-2.385,0.26-3.014,0.993c-0.065,0.078,0.021,0.169,0.101,0.166c0.622-0.025,1.247-0.32,1.855-0.445
								c0.386-0.075,1.056,0.07,1.319-0.25C115.313,173.282,115.314,173.194,115.287,173.126z"/>
							<path style="fill:#221F4F;" d="M122.416,172.436c-0.507-0.053-1.064-0.011-1.555,0.12c-0.188,0.051-0.28,0.363-0.045,0.428
								c0.518,0.139,1.086,0.184,1.622,0.129C122.831,173.072,122.794,172.475,122.416,172.436z"/>
							<path style="fill:#221F4F;" d="M115.329,175.274c0,0.49-0.381,0.888-0.848,0.888c-0.468,0-0.848-0.398-0.848-0.888
								c0-0.492,0.38-0.889,0.848-0.889C114.948,174.385,115.329,174.782,115.329,175.274z"/>
							<path style="fill:#221F4F;" d="M122.718,174.924c0,0.49-0.38,0.889-0.848,0.889c-0.468,0-0.847-0.399-0.847-0.889
								c0-0.491,0.379-0.889,0.847-0.889C122.338,174.036,122.718,174.433,122.718,174.924z"/>
							<path style="fill:#FFFFFF;" d="M121.88,182.274c-1.613,0.729-4.012,1.079-5.681,0.891c-0.287-0.032-1.008-0.07-0.969,0.232
								c0.203,1.557,2.458,2.749,3.979,2.424c2.215-0.473,2.538-1.579,3.029-3.099C122.321,182.468,122.182,182.138,121.88,182.274z
								"/>
							<path style="fill:#F05A00;" d="M103.382,179.696c0.381,0.717,0.352,1.476-0.063,1.695c-0.414,0.218-1.057-0.183-1.437-0.899
								c-0.379-0.717-0.351-1.476,0.063-1.695C102.359,178.578,103.003,178.98,103.382,179.696z"/>
							<path style="fill:#F05A00;" d="M110.451,188.579c0,0,2.916,1.429,4.03,1.442c1.115,0.013,2.72-0.119,2.72-0.119l0.112,4.173
								c0,0-3.638-3.214-4.822-4.032C111.306,189.225,110.451,188.579,110.451,188.579z"/>
						</g>
						<g>
							<path style="fill:#F05A00;" d="M169.442,180.094c0,0-12.516,20.809-19.82,21.3c-8.35,0.564-14.896-2.12-19.387-3.514
								c-3.729-1.155-4.564-1.657-4.564-1.657l4.994,31.98c0,0,20.402,0,28.878-6.724c5.52-4.378,8.343-5.8,13.873-22.263
								c2.65-7.889,2.65-10.637,3.799-14.808L169.442,180.094z"/>
							<path style="opacity:0.4;fill:#F05A00;" d="M151.967,222.628c-4.676,0-9.064-1.349-12.87-3.704l-0.099,8.786
								c0,0,2.382-0.152,6.232-0.869c7.546-1.404,11.463-2.926,15.017-5.684C157.643,222.106,154.861,222.628,151.967,222.628z"/>
							<path style="fill:#FAC1AC;" d="M184.213,168.893c0.184-0.552,0.314-1.061,0.327-1.233c0.025-0.312-1.183-1.682-2.092-0.397
								c-0.015,0.021-0.03,0.047-0.046,0.067c0.22-0.572,0.367-1.098,0.282-1.253c-0.25-0.458-1.459-1.3-2.358-0.254
								c0.726-1.894,2.101-5.455,2.417-6.045c0.431-0.809,0.738-3.087-0.511-2.73c-1.374,0.395-3.424,4.875-4.936,7.837
								c-1.281,2.511-1.99,4.142-2.37,5.207c-0.182-0.594-0.377-1.301-0.592-2.147c-0.529-2.084-1.79-3.158-2.419-3.052
								c-0.63,0.104-0.5,1.15-0.514,3c-0.042,5.703,0.015,10.227,0.022,10.847l-1.001,1.913l5.983,3.406
								c0.376-0.763,0.694-1.405,0.928-1.877c0.601-0.791,1.846-2.34,3.541-3.977c0.846-0.82,1.446-1.65,1.876-2.39l0.003,0.001
								c0,0,0.008-0.014,0.02-0.037c0.137-0.241,0.259-0.469,0.362-0.685c0.394-0.744,1.021-1.928,1.521-2.866
								c0.43-0.809,0.708-2.536,0.733-2.846C185.414,169.119,184.918,168.343,184.213,168.893z"/>
						</g>
						<path style="opacity:0.4;fill:#F05A00;" d="M81.179,237.525l12.409-8.479c0,0,1.915,14.634,0.792,22.702
							c-1.122,8.062-4.516,17.611-4.516,17.611s-1.707-0.303-2.542-5.732c-0.839-5.43-0.839-5.43-2.529-13.004
							C83.714,245.788,81.179,237.525,81.179,237.525z"/>
						<g>
							<g>
								<polygon style="fill:#FFA500;" points="108.683,276.754 120.675,321.764 66.366,336.877 54.547,290.619 								"/>
								<polygon style="fill:#F7BC81;" points="58.502,293.113 118.746,320.693 107.224,280.293 								"/>
							</g>
							<g>
								<path style="fill:#FAC1AC;" d="M74.215,274.492c0.413-0.689,4.525,1.918,8.4,4.996c0.88,0.695,2.64,3.295,2.64,3.295
									l-3.903,0.996c0,0-0.026,2.16,3.903,3.611c2.728,1.004-4.553,3.852-7.569,2.885c-5.418-1.74-8.376-12.643-8.376-12.643
									L74.215,274.492z"/>
								<path style="fill:#F05A00;" d="M94.732,200.1c3.57,3.151,4.846,15.787,2.922,21.109
									c-4.907,13.59-10.847,11.829-24.439,21.168c-8.14,5.589,5.093,32.916,5.093,32.916l-9.313,6.314
									c0,0-23.473-25.053-22.185-39.54c1.854-20.858,32.104-38.909,35.966-40.393C90.354,198.762,92.922,198.501,94.732,200.1z"/>
							</g>
						</g>
					</g>
				</g>
			</g>
			<g>
				<path style="fill:#99A5ED;" d="M91.909,145.833c-0.448-1.093-0.785-2.202-1.042-3.282l1.522-0.203
					c2.749-0.365,4.683-2.889,4.317-5.641l-3.16-23.781c-0.363-2.75-2.89-4.683-5.64-4.316l-42.319,5.621
					c-2.749,0.365-4.685,2.89-4.317,5.641l3.157,23.782c0.367,2.749,2.892,4.68,5.642,4.315l28.336-3.765
					c2.095,2.476,4.738,5.236,6.986,6.439c7.195,3.849,11.999,0.848,11.999,0.848S94.134,151.228,91.909,145.833z"/>
				<g>
					<path style="fill:#FFFFFF;" d="M77.88,129.111c0.207,1.523,1.609,2.587,3.131,2.379c1.523-0.208,2.588-1.611,2.379-3.133
						c-0.208-1.521-1.611-2.587-3.133-2.377C78.733,126.187,77.671,127.589,77.88,129.111z"/>
					<path style="fill:#FFA500;" d="M66.234,130.708c0.208,1.522,1.609,2.585,3.131,2.378c1.522-0.211,2.588-1.611,2.379-3.134
						c-0.209-1.521-1.611-2.586-3.134-2.378C67.089,127.784,66.023,129.186,66.234,130.708z"/>
					<path style="fill:#FFA500;" d="M54.587,132.304c0.209,1.521,1.61,2.586,3.132,2.377c1.521-0.208,2.588-1.609,2.38-3.132
						c-0.21-1.522-1.613-2.586-3.134-2.378C55.442,129.379,54.378,130.782,54.587,132.304z"/>
				</g>
			</g>
			<g>
				<path style="fill:#6A77E0;" d="M395.783,187.661c0.449-1.092,0.785-2.202,1.043-3.281l-1.522-0.204
					c-2.75-0.366-4.682-2.889-4.318-5.64l3.16-23.781c0.365-2.751,2.891-4.683,5.641-4.317l42.318,5.622
					c2.75,0.366,4.685,2.891,4.318,5.641l-3.156,23.781c-0.369,2.751-2.893,4.682-5.641,4.317l-28.338-3.765
					c-2.094,2.476-4.738,5.235-6.988,6.437c-7.193,3.848-11.998,0.848-11.998,0.848S393.56,193.056,395.783,187.661z"/>
				<g>
					<path style="fill:#FFFFFF;" d="M409.814,170.939c-0.207,1.523-1.609,2.588-3.131,2.379c-1.523-0.209-2.588-1.611-2.379-3.133
						c0.207-1.521,1.611-2.586,3.133-2.378C408.961,168.015,410.023,169.417,409.814,170.939z"/>
					<path style="fill:#FFA500;" d="M421.461,172.536c-0.211,1.522-1.611,2.585-3.133,2.379c-1.522-0.211-2.588-1.612-2.377-3.135
						c0.207-1.521,1.611-2.587,3.131-2.378C420.605,169.613,421.67,171.014,421.461,172.536z"/>
					<path style="fill:#FFFFFF;" d="M433.107,174.131c-0.209,1.522-1.609,2.587-3.133,2.378c-1.521-0.209-2.588-1.61-2.377-3.133
						c0.207-1.522,1.611-2.586,3.133-2.378C432.252,171.208,433.314,172.609,433.107,174.131z"/>
				</g>
			</g>
			<g>
				<g>
					<g>
						<polygon style="fill:#6A77E0;" points="435.035,431.006 424.912,368.648 420.162,368.94 433.164,431.006 						"/>
						<polygon style="fill:#6A77E0;" points="414.264,431.006 404.143,368.648 399.92,368.801 412.393,431.006 						"/>
						<polygon style="fill:#6A77E0;" points="337.09,431.006 347.211,368.648 352.072,368.801 338.959,431.006 						"/>
						<polygon style="fill:#6A77E0;" points="357.861,431.006 367.98,368.648 372.203,368.94 359.73,431.006 						"/>
					</g>
					<path style="fill:#6A77E0;" d="M458.211,326.266c-5.701,43.566-44.232,62.285-82.877,57.897
						c-67.559-7.674-47.461-45.514-28.008-81.117c18.951-34.691,24.951-55.33,63.842-55.33
						C450.057,247.714,461.609,300.328,458.211,326.266z"/>
					<path style="opacity:0.5;fill:#6A77E0;" d="M423.91,249.78c11.025,17.599,14.252,42.289,12.242,57.638
						c-5.701,43.566-44.234,62.285-82.875,57.897c-9.486-1.076-17.246-2.75-23.52-4.928c3.815,11.686,16.684,20.41,45.422,23.676
						c38.643,4.389,77.174-14.33,82.877-57.895C461.043,303.357,452.467,259.926,423.91,249.78z"/>
				</g>
				<g>
					<g>
						<g>
							<path style="fill:#F7BC81;" d="M335.977,309.055c0.365-0.713-4.022-2.82-8.686-4.475c-1.055-0.377-4.42-0.463-4.42-0.463
								l1.145,3.641c0,0-1.512,1.334-4.828-1.229c-2.297-1.783-0.853,5.902,1.565,7.947c4.348,3.67,15.16,0.406,15.16,0.406
								L335.977,309.055z"/>
							<path style="fill:#F59300;" d="M386.396,256.719c-4.568-1.361-8.812,0.961-12.305,5.414
								c-8.928,11.361-6.035,16.773-6.754,33.252c-0.432,9.865-34.207,10.625-34.207,10.625l-0.98,9.881
								c0,0,38.846,1.277,52.957-0.984c9.227-1.477,10.016-41.426,9.227-45.488C392.787,261.445,388.709,257.408,386.396,256.719z"
								/>
						</g>
						<path style="fill:#F05A00;" d="M448.754,262.199c1.873-5.121,8.338-10.316,6.018-16.455c-0.783-2.078-2.092-3.098-4.256-3.518
							c-1.365-0.264-2.809-0.197-4.193-0.375c-2.565-0.33-4.174-2.31-5.834-4.076c-2.053-2.186-4.973-3.117-6.869-5.485
							c-2.373-2.96-2.445-7.757-3.139-11.339c-0.807-4.16-3.398-10.529-8.563-10.322c-2.123,0.085-4.209,0.589-6.344,0.438
							c-2.129-0.151-4.193-1.15-6.031-2.159c-2.742-1.502-5.098-3.626-8.291-4.071c-2.686-0.375-5.352,1.825-7.66,2.86
							c-4.029,1.808-8.043,0.181-12.109-0.562c-11.24-2.05-19.73,11.867-14.514,21.297c1.133,2.048,3.055,3.461,4.201,5.457
							c0.105,0.186,0.346,0.131,0.396-0.021c0.234,0.008,0.484-0.09,0.621-0.345c0.949-1.739,1.195-3.239,2.762-4.667
							c1.373-1.248,3.07-2.126,4.76-2.857c3.143-1.365,6.56-0.837,8.725,2.053c3.188,4.257,2.504,11.078,2.617,15.992
							c0.066,2.934,0.32,5.511,1.404,8.263c1.125,2.857,2.76,5.482,4.65,7.887c1.975,2.514,3.639,4.803,3.918,8.094
							c0.23,2.728,0.928,4.978,2.51,7.232c1.539,2.191,3.779,4.035,5.697,5.883c1.799,1.73,3.789,2.271,6.23,1.939
							c2.789-0.379,5.473-1.848,7.963-3.059c1.627-0.791,3.262-1.443,5.059-1.721c2.064-0.32,4.482,0.398,6.549,0.611
							c3.096,0.318,6.027-0.123,8.994-1.023c2.221-0.674,5.223-1.486,7.141-2.82c1.406-0.98,1.805-2.065,1.258-3.693
							C451.273,268.219,447.207,266.438,448.754,262.199z"/>
						<g>
							<g>
								<path style="fill:#6A77E0;" d="M418.754,323.445c0,0-44.594-4.082-76.607,2.686c-29.537,6.242-30.67,12.553-36.211,30.867
									c-3.767,12.445-10.66,44.361-14.773,62.652c-0.773,3.439-9.154,9.799-9.154,9.799l-3.881,3.065c0,0,9.754-0.1,15.006-1.6
									c5.252-1.502,3.25-1.752,4.252-5.65c0.609-2.385,0.738-3.065,0.82-3.203c10.404-17.5,15.293-22.406,19.772-33.139
									c4.107-9.834,7.668-32.031,7.668-32.031s49.359,12.734,62.498,12.547c4.859-0.065,35.623-5.063,37.281-18.799
									C426.568,341.234,418.754,323.445,418.754,323.445z M298.203,422.065L298.203,422.065c0-0.002,0-0.002,0-0.002V422.065z"/>
								<path style="fill:#221F4F;" d="M297.232,427.463c0-0.426,0-1.164,0-1.164s-5.613,2.803-7.816,3.535
									c-11.289,3.748-7.063-0.455-7.408-0.385c-3.152,0.637-11.797,5.299-11.797,5.299s5.277,1.627,5.564,1.664
									c4.955,0.652,7.289,0.506,8.953,0.209c2.943-0.523,5.352-2.625,8.035-3.842c0.465,1.215,0.818,2.447,1.111,3.719
									c0.063,0.279,0.592,0.426,0.592,0.426S297.23,429.705,297.232,427.463z"/>
							</g>
							<g>
								<path style="fill:#99A5ED;" d="M420.514,332.924c0,0-54.818-0.504-68.68,0c-30.059,1.045-32.83,16.354-33.361,21.957
									c-0.703,7.391,13.352,47.125,16.945,61.621c0.728,2.939,2.449,12.123,0.785,17.113c-0.281,0.84,0,3.551,0,3.551
									s4.361,0.037,6.195-3.316c1.836-3.354,5.834-9.15,5.834-9.15l-1.498-1.768c0,0-2.826-2.273-2.414-4.002
									c2.467-9.922,10.332-43.324-9.697-56.916c0,0,44.455,8.252,57.545,8.064c4.84-0.059,28.588-0.955,30.24-14.641
									C423.555,346.063,420.514,332.924,420.514,332.924z"/>
								<path style="fill:#221F4F;" d="M347.463,423.18c-0.246-0.348-1.383-0.84-1.383-0.84s-2.242,5.424-3.615,7.301
									c-7.033,9.59-6.023,3.719-6.262,3.975c-2.203,2.344-6.553,11.152-6.553,11.152s5.246-1.73,5.504-1.867
									c4.414-2.338,6.234-3.809,7.42-5.014c2.094-2.131,2.842-5.238,4.324-7.789c1.082,0.723,2.084,1.525,3.061,2.393
									c0.215,0.191,0.728,0.006,0.728,0.006S348.762,425.01,347.463,423.18z"/>
							</g>
							<g>
								<path style="fill:#F05A00;" d="M423.82,319.387c0,0,7.047,15.322,7.289,25.4c0.744,31.309-37.514,27.391-42.676,27.453
									c-13.959,0.201-44.252-8.406-44.252-8.406s2.922-14.609-5.498-25.35c-6.605-8.422-15.748-7.145-15.748-7.145
									s10.043-9.75,57.395-10.133C395.125,321.086,423.82,319.387,423.82,319.387z"/>
								<path style="opacity:0.4;fill:#F05A00;" d="M431.109,344.787c-0.242-10.078-7.426-25.4-7.426-25.4s-0.654,0.039-1.797,0.105
									c-0.449,27.725-30.33,46.932-62.867,48.145c10.326,2.604,24.836,4.734,31.207,4.645
									C395.389,372.217,431.853,376.096,431.109,344.787z"/>
							</g>
						</g>
						<g>
							<path style="fill:#FFA500;" d="M373.557,263.117c-3.234,4.613-6.924,23.154,0.836,30.621
								c7.277,7.002,3.951,25.941,5.938,27.469c7.793,5.992,17.189,8.344,36.373,2.826c1.416-0.406,8.369-2.443,8.369-2.443
								s-0.836-17.061,0.357-26.553c2.287-18.227-3.666-32.861-13.428-40.365c-3.213-2.469-15.268-5.443-21.746-3.279
								C385.744,252.898,378.281,256.377,373.557,263.117z"/>
							<path style="fill:#F59300;" d="M412.291,254.672c-2.762-1.902-8.295-2.846-11.5-3.637c1.076,3.809,0.574,9.959-2.445,12.826
								c-9.912,9.408-5.082,10.053-8.119,29.643c-0.334,2.15-1.16,5.027-5.576,7.477c-8.455,4.689-4.957,19.516-4.033,20.227
								c7.793,5.992,17.191,8.344,36.373,2.826c1.416-0.406,8.371-2.443,8.371-2.443s-0.836-17.061,0.353-26.553
								C428.004,276.81,421.898,261.293,412.291,254.672z"/>
						</g>
						<g>
							<path style="fill:#F7BC81;" d="M362.844,310.398c0.367-0.715-4.021-2.822-8.684-4.477c-1.055-0.377-4.422-0.463-4.422-0.463
								l1.145,3.643c0,0-1.512,1.332-4.826-1.23c-2.297-1.781-0.853,5.902,1.565,7.949c4.348,3.67,15.16,0.404,15.16,0.404
								L362.844,310.398z"/>
							<path style="fill:#FFA500;" d="M413.264,258.06c-4.565-1.359-8.811,0.961-12.305,5.414
								c-8.926,11.363-6.033,16.773-6.752,33.252c-0.432,9.865-34.209,10.627-34.209,10.627l-0.978,9.879
								c0,0,38.846,1.277,52.955-0.982c9.227-1.48,10.016-41.426,9.227-45.49C419.654,262.787,415.578,258.75,413.264,258.06z"/>
						</g>
					</g>
					<g>
						<g>
							<path style="fill:#F7BC81;" d="M383.586,259.453l-2.541-16.695l-0.43-2.398l11.732-3.124l5.172,18.193
								c0,0-3.275,6.082-9.043,5.857C385.814,261.182,383.586,259.453,383.586,259.453z"/>
							<path style="fill:#F7BC81;" d="M392.041,235.502c0.545,7.084-2.473,12.726-8.414,13.538c-3.506,0.479-4.762-0.156-6.51-1.233
								c-3.877-2.391-5.428-7.642-5.809-12.524c-0.549-7.082,2.039-10.932,7.992-11.641
								C385.246,222.932,391.484,228.425,392.041,235.502z"/>
							<path style="fill:#F7BC81;" d="M396.93,238.635c-1.799,2.175-4.057,3.152-5.166,2.64c-1.721-0.8-2.143-4.042-0.934-6.43
								c1.209-2.388,3.658-3.149,5.313-2.214C397.783,233.562,398.629,236.578,396.93,238.635z"/>
						</g>
						<path style="fill:#221F4F;" d="M380.322,232.377c0.006-0.02,0.01-0.041,0.016-0.063c0.02-0.107,0.115-0.204,0.221-0.231
							c0.902-0.218,2.393-0.168,3.143,0.441c0.08,0.067,0.008,0.172-0.07,0.182c-0.617,0.086-1.283-0.093-1.906-0.106
							c-0.391-0.007-1.025,0.255-1.342-0.014C380.324,232.536,380.307,232.451,380.322,232.377z"/>
						<path style="fill:#221F4F;" d="M372.762,233.151c0.49-0.143,1.047-0.199,1.553-0.156c0.195,0.016,0.342,0.309,0.119,0.412
							c-0.482,0.229-1.033,0.373-1.572,0.415C372.467,233.85,372.396,233.258,372.762,233.151z"/>
						<path style="fill:#221F4F;" d="M380.662,234.501c0.088,0.481,0.531,0.807,0.992,0.724c0.459-0.083,0.762-0.542,0.676-1.024
							c-0.088-0.484-0.531-0.809-0.992-0.725C380.879,233.557,380.574,234.016,380.662,234.501z"/>
						<path style="fill:#221F4F;" d="M372.908,235.653c0.086,0.483,0.531,0.809,0.992,0.725c0.457-0.083,0.762-0.543,0.674-1.023
							c-0.086-0.484-0.531-0.808-0.988-0.725C373.123,234.711,372.818,235.169,372.908,235.653z"/>
						<path style="fill:#FFFFFF;" d="M375.908,242.04c1.717,0.432,4.141,0.35,5.75-0.131c0.277-0.084,0.977-0.248,0.992,0.057
							c0.076,1.568-1.93,3.141-3.486,3.09c-2.264-0.074-2.777-1.104-3.529-2.512C375.508,242.305,375.586,241.96,375.908,242.04z"/>
						<path style="fill:#F05A00;" d="M393.398,236.401c-0.246,0.773-0.084,1.515,0.363,1.657c0.445,0.142,1.008-0.366,1.254-1.14
							c0.246-0.773,0.084-1.516-0.363-1.657C394.207,235.119,393.645,235.629,393.398,236.401z"/>
						<path style="fill:#F05A00;" d="M388.434,246.696c0,0-2.065,1.779-3.711,2.133c-1.09,0.236-2.695,0.366-2.695,0.366
							l0.627,4.128c0,0,3.01-3.809,4.029-4.824C387.707,247.483,388.434,246.696,388.434,246.696z"/>
						<path style="fill:#221F4F;" d="M378.676,239.734c-0.373-0.002-1.455,0.678-1.602,0.123c-0.135-0.509,0.172-1.191,0.324-1.667
							c0.266-0.819,0.945-2.047,0.561-2.919c-0.025-0.061-0.123-0.034-0.109,0.033c0.127,0.608-0.299,1.442-0.51,2.002
							c-0.264,0.706-0.566,1.411-0.689,2.16c-0.217,1.338,1.484,1.385,2.158,0.566C378.895,239.929,378.814,239.736,378.676,239.734
							z"/>
					</g>
				</g>
				<g>
					<g>
						<g>
							<polygon style="fill:#221F4F;" points="339.611,267.588 354.219,317.232 297.166,317.232 282.816,267.588 							"/>
							<rect x="352.848" y="314.6" style="fill:#221F4F;" width="33.395" height="2.633"/>
						</g>
						<path style="fill:#FFFFFF;" d="M319.816,291.363c0,1.199-0.973,2.17-2.172,2.17c-1.199,0-2.172-0.971-2.172-2.17
							c0-1.203,0.973-2.174,2.172-2.174C318.844,289.19,319.816,290.16,319.816,291.363z"/>
					</g>
					<g>
						<g>
							<polygon style="fill:#99A5ED;" points="448.832,443.26 428.111,319.77 418.387,320.344 445.004,443.26 							"/>
							<polygon style="fill:#99A5ED;" points="248.311,443.26 269.031,319.77 278.986,320.072 252.139,443.26 							"/>
						</g>
						<rect x="257.156" y="317.232" style="fill:#99A5ED;" width="183.785" height="4.555"/>
					</g>
				</g>
			</g>
			<g>
				<path style="fill:#FFA500;" d="M393.932,115.043c0,3.888-3.154,7.041-7.041,7.041h-52.77c-3.889,0-7.041-3.153-7.041-7.041
					v-52.77c0-3.889,3.152-7.042,7.041-7.042h52.77c3.887,0,7.041,3.152,7.041,7.042V115.043z"/>
				<path style="fill:#4849D3;" d="M360.506,62.544c-10.645,0-19.273,8.63-19.273,19.274c0,2.721,0.568,5.309,1.584,7.656
					l0.623,1.297c0.764,1.456,16.781,24,16.781,24s16.537-22.419,17.422-24.14l0.553-1.156c1.016-2.348,1.584-4.935,1.584-7.656
					C379.779,71.174,371.15,62.544,360.506,62.544z M360.506,88.658c-4.189,0-7.586-3.396-7.586-7.583
					c0-4.189,3.397-7.585,7.586-7.585c4.189,0,7.582,3.396,7.582,7.585C368.088,85.262,364.695,88.658,360.506,88.658z"/>
			</g>
		</g>
	</g>
</g>
</svg>
